<svg width="256" height="256" viewBox="0 0 256 256" fill="none" xmlns="http://www.w3.org/2000/svg">
<path d="M224.762 103.164C226.294 101.983 228.572 103.088 228.572 104.955V182.859C228.572 192.955 220.126 201.145 209.715 201.145H46.2866C35.8759 201.145 27.4294 192.955 27.4294 182.859V104.993C27.4294 103.088 29.6687 102.021 31.2402 103.202C40.0402 109.831 51.708 118.25 91.7794 146.478C100.069 152.345 114.054 164.688 128.001 164.612C142.026 164.726 156.287 152.117 164.262 146.478C204.333 118.25 215.962 109.793 224.762 103.164ZM128.001 152.383C137.115 152.536 150.237 141.259 156.837 136.612C208.969 99.9261 212.937 96.726 224.958 87.5832C227.237 85.8689 228.572 83.2022 228.572 80.3832V73.1451C228.572 63.0499 220.126 54.8594 209.715 54.8594H46.2866C35.8759 54.8594 27.4294 63.0499 27.4294 73.1451V80.3832C27.4294 83.2022 28.7652 85.8308 31.0437 87.5832C43.0652 96.688 47.033 99.9261 99.1652 136.612C105.765 141.259 118.887 152.536 128.001 152.383Z" fill="white" fill-opacity="0.2"/>
<path d="M224.762 103.164C226.294 101.983 228.572 103.088 228.572 104.955V182.859C228.572 192.955 220.126 201.145 209.715 201.145H46.2866C35.8759 201.145 27.4294 192.955 27.4294 182.859V104.993C27.4294 103.088 29.6687 102.021 31.2402 103.202C40.0402 109.831 51.708 118.25 91.7794 146.478C100.069 152.345 114.054 164.688 128.001 164.612C142.026 164.726 156.287 152.117 164.262 146.478C204.333 118.25 215.962 109.793 224.762 103.164ZM128.001 152.383C137.115 152.536 150.237 141.259 156.837 136.612C208.969 99.9261 212.937 96.726 224.958 87.5832C227.237 85.8689 228.572 83.2022 228.572 80.3832V73.1451C228.572 63.0499 220.126 54.8594 209.715 54.8594H46.2866C35.8759 54.8594 27.4294 63.0499 27.4294 73.1451V80.3832C27.4294 83.2022 28.7652 85.8308 31.0437 87.5832C43.0652 96.688 47.033 99.9261 99.1652 136.612C105.765 141.259 118.887 152.536 128.001 152.383Z" fill="url(#paint0_linear)"/>
<defs>
<linearGradient id="paint0_linear" x1="41.6278" y1="38.3981" x2="188.12" y2="216.641" gradientUnits="userSpaceOnUse">
<stop stop-color="#3AF436"/>
<stop offset="0.560417" stop-color="#36F4F4"/>
<stop offset="1" stop-color="#363EF4"/>
</linearGradient>
</defs>
</svg>
