<svg width="256" height="256" viewBox="0 0 256 256" fill="none" xmlns="http://www.w3.org/2000/svg">
<path fill-rule="evenodd" clip-rule="evenodd" d="M4 0C1.79086 0 0 1.79086 0 4V252C0 254.209 1.79086 256 4 256H252C254.209 256 256 254.209 256 252V4C256 1.79086 254.209 0 252 0H4ZM46.7355 197.176C46.7355 206.013 53.899 213.176 62.7355 213.176H65.0774C73.914 213.176 81.0774 206.013 81.0774 197.176V113.558C81.0774 104.721 73.914 97.558 65.0774 97.558H62.7355C53.899 97.558 46.7355 104.721 46.7355 113.558V197.176ZM44 60.7966C44 72.2773 52.9089 81.7865 63.888 81.7865C74.8671 81.7865 83.776 72.2773 83.776 60.7966C83.776 49.316 74.8671 40 63.888 40C52.9089 40 44 49.316 44 60.7966ZM175.342 197.176C175.342 206.013 182.506 213.176 191.342 213.176H209.61V213.176C209.631 213.176 209.647 213.16 209.647 213.139V149.666C209.647 118.587 203.252 94.6588 168.503 94.6588C151.894 94.6588 140.727 104.132 136.092 113.168C136.041 113.267 135.939 113.329 135.827 113.329V113.329C135.662 113.329 135.529 113.196 135.529 113.032V105.444C135.529 101.089 131.999 97.558 127.643 97.558H118.592C109.755 97.558 102.592 104.721 102.592 113.558V197.176C102.592 206.013 109.755 213.176 118.592 213.176H120.897C129.733 213.176 136.897 206.013 136.897 197.176V155.928C136.897 140.852 139.632 126.279 157.487 126.279C175.083 126.279 175.342 143.481 175.342 156.894V197.176Z" fill="white" fill-opacity="0.2"/>
<path fill-rule="evenodd" clip-rule="evenodd" d="M4 0C1.79086 0 0 1.79086 0 4V252C0 254.209 1.79086 256 4 256H252C254.209 256 256 254.209 256 252V4C256 1.79086 254.209 0 252 0H4ZM46.7355 197.176C46.7355 206.013 53.899 213.176 62.7355 213.176H65.0774C73.914 213.176 81.0774 206.013 81.0774 197.176V113.558C81.0774 104.721 73.914 97.558 65.0774 97.558H62.7355C53.899 97.558 46.7355 104.721 46.7355 113.558V197.176ZM44 60.7966C44 72.2773 52.9089 81.7865 63.888 81.7865C74.8671 81.7865 83.776 72.2773 83.776 60.7966C83.776 49.316 74.8671 40 63.888 40C52.9089 40 44 49.316 44 60.7966ZM175.342 197.176C175.342 206.013 182.506 213.176 191.342 213.176H209.61V213.176C209.631 213.176 209.647 213.16 209.647 213.139V149.666C209.647 118.587 203.252 94.6588 168.503 94.6588C151.894 94.6588 140.727 104.132 136.092 113.168C136.041 113.267 135.939 113.329 135.827 113.329V113.329C135.662 113.329 135.529 113.196 135.529 113.032V105.444C135.529 101.089 131.999 97.558 127.643 97.558H118.592C109.755 97.558 102.592 104.721 102.592 113.558V197.176C102.592 206.013 109.755 213.176 118.592 213.176H120.897C129.733 213.176 136.897 206.013 136.897 197.176V155.928C136.897 140.852 139.632 126.279 157.487 126.279C175.083 126.279 175.342 143.481 175.342 156.894V197.176Z" fill="url(#paint0_linear)"/>
<defs>
<linearGradient id="paint0_linear" x1="18.0706" y1="-28.8072" x2="277.439" y2="200.708" gradientUnits="userSpaceOnUse">
<stop stop-color="#3AF436"/>
<stop offset="0.560417" stop-color="#36F4F4"/>
<stop offset="1" stop-color="#363EF4"/>
</linearGradient>
</defs>
</svg>
