<svg width="256" height="256" viewBox="0 0 256 256" fill="none" xmlns="http://www.w3.org/2000/svg">
<path fill-rule="evenodd" clip-rule="evenodd" d="M4 0C1.79086 0 0 1.79086 0 4V252C0 254.209 1.79086 256 4 256H252C254.209 256 256 254.209 256 252V4C256 1.79086 254.209 0 252 0H4ZM216.834 72C223.303 72 224.648 75.2471 223.303 79.6588C220.614 91.7647 194.484 127.482 194.448 127.518C192.195 131.047 191.286 132.812 194.448 136.765C194.685 137.09 195.891 138.287 197.714 140.097C205.385 147.711 223.976 166.165 227.264 176.118C229.045 181.976 225.956 184.941 219.851 184.941H198.445C192.729 184.941 189.844 181.826 183.598 175.081C180.95 172.222 177.698 168.71 173.37 164.506C160.65 152.612 155.199 151.059 152.037 151.059C146.236 151.059 146.251 152.662 146.388 167.573C146.412 170.225 146.44 173.299 146.44 176.859C146.44 181.976 144.769 184.941 131.14 184.941C108.463 184.941 83.5327 171.565 65.8342 146.894C39.2684 110.753 32 83.4 32 77.8941C32 74.7882 33.2356 72 39.341 72H60.7463C66.234 72 68.3054 74.3294 70.4133 80.0824C80.8797 109.729 98.5418 135.635 105.81 135.635C108.536 135.635 109.771 134.4 109.771 127.694V97.0588C109.277 88.3294 106.143 84.5524 103.822 81.756C102.39 80.03 101.267 78.6775 101.267 76.7647C101.267 74.4706 103.303 72 106.719 72H140.371C144.878 72 146.404 74.3647 146.404 79.6588V120.847C146.404 125.259 148.475 126.812 149.82 126.812C152.546 126.812 154.835 125.259 159.814 120.424C175.223 103.694 186.126 77.8941 186.126 77.8941C187.47 74.7882 189.978 72 195.429 72H216.834Z" fill="white" fill-opacity="0.2"/>
<path fill-rule="evenodd" clip-rule="evenodd" d="M4 0C1.79086 0 0 1.79086 0 4V252C0 254.209 1.79086 256 4 256H252C254.209 256 256 254.209 256 252V4C256 1.79086 254.209 0 252 0H4ZM216.834 72C223.303 72 224.648 75.2471 223.303 79.6588C220.614 91.7647 194.484 127.482 194.448 127.518C192.195 131.047 191.286 132.812 194.448 136.765C194.685 137.09 195.891 138.287 197.714 140.097C205.385 147.711 223.976 166.165 227.264 176.118C229.045 181.976 225.956 184.941 219.851 184.941H198.445C192.729 184.941 189.844 181.826 183.598 175.081C180.95 172.222 177.698 168.71 173.37 164.506C160.65 152.612 155.199 151.059 152.037 151.059C146.236 151.059 146.251 152.662 146.388 167.573C146.412 170.225 146.44 173.299 146.44 176.859C146.44 181.976 144.769 184.941 131.14 184.941C108.463 184.941 83.5327 171.565 65.8342 146.894C39.2684 110.753 32 83.4 32 77.8941C32 74.7882 33.2356 72 39.341 72H60.7463C66.234 72 68.3054 74.3294 70.4133 80.0824C80.8797 109.729 98.5418 135.635 105.81 135.635C108.536 135.635 109.771 134.4 109.771 127.694V97.0588C109.277 88.3294 106.143 84.5524 103.822 81.756C102.39 80.03 101.267 78.6775 101.267 76.7647C101.267 74.4706 103.303 72 106.719 72H140.371C144.878 72 146.404 74.3647 146.404 79.6588V120.847C146.404 125.259 148.475 126.812 149.82 126.812C152.546 126.812 154.835 125.259 159.814 120.424C175.223 103.694 186.126 77.8941 186.126 77.8941C187.47 74.7882 189.978 72 195.429 72H216.834Z" fill="url(#paint0_linear)"/>
<defs>
<linearGradient id="paint0_linear" x1="18.0706" y1="-28.8072" x2="277.439" y2="200.708" gradientUnits="userSpaceOnUse">
<stop stop-color="#3AF436"/>
<stop offset="0.560417" stop-color="#36F4F4"/>
<stop offset="1" stop-color="#363EF4"/>
</linearGradient>
</defs>
</svg>
