<svg width="256" height="256" viewBox="0 0 256 256" fill="none" xmlns="http://www.w3.org/2000/svg">
<path d="M220.842 76.5651C222.187 72.1533 220.842 68.9062 214.373 68.9062H192.968C187.517 68.9062 185.009 71.6945 183.665 74.8004C183.665 74.8004 172.762 100.6 157.353 117.33C152.374 122.165 150.085 123.718 147.359 123.718C146.014 123.718 143.943 122.165 143.943 117.753V76.5651C143.943 71.271 142.417 68.9062 137.91 68.9062H104.258C100.842 68.9062 98.8065 71.3768 98.8065 73.671C98.8065 78.6827 106.511 79.8474 107.31 93.9651V124.6C107.31 131.306 106.075 132.542 103.349 132.542C96.0809 132.542 78.4188 106.636 67.9523 76.9886C65.8445 71.2357 63.773 68.9062 58.2854 68.9062H36.8801C30.7747 68.9062 29.5391 71.6945 29.5391 74.8004C29.5391 80.3062 36.8074 107.659 63.3733 143.8C81.0717 168.471 106.002 181.847 128.679 181.847C142.308 181.847 143.979 178.883 143.979 173.765C143.979 150.189 142.744 147.965 149.576 147.965C152.738 147.965 158.189 149.518 170.909 161.412C185.445 175.53 187.844 181.847 195.984 181.847H217.39C223.495 181.847 226.584 178.883 224.803 173.024C220.733 160.706 193.222 135.365 191.987 133.671C188.825 129.718 189.734 127.953 191.987 124.424C192.023 124.389 218.153 88.671 220.842 76.5651Z" fill="white" fill-opacity="0.2"/>
<path d="M220.842 76.5651C222.187 72.1533 220.842 68.9062 214.373 68.9062H192.968C187.517 68.9062 185.009 71.6945 183.665 74.8004C183.665 74.8004 172.762 100.6 157.353 117.33C152.374 122.165 150.085 123.718 147.359 123.718C146.014 123.718 143.943 122.165 143.943 117.753V76.5651C143.943 71.271 142.417 68.9062 137.91 68.9062H104.258C100.842 68.9062 98.8065 71.3768 98.8065 73.671C98.8065 78.6827 106.511 79.8474 107.31 93.9651V124.6C107.31 131.306 106.075 132.542 103.349 132.542C96.0809 132.542 78.4188 106.636 67.9523 76.9886C65.8445 71.2357 63.773 68.9062 58.2854 68.9062H36.8801C30.7747 68.9062 29.5391 71.6945 29.5391 74.8004C29.5391 80.3062 36.8074 107.659 63.3733 143.8C81.0717 168.471 106.002 181.847 128.679 181.847C142.308 181.847 143.979 178.883 143.979 173.765C143.979 150.189 142.744 147.965 149.576 147.965C152.738 147.965 158.189 149.518 170.909 161.412C185.445 175.53 187.844 181.847 195.984 181.847H217.39C223.495 181.847 226.584 178.883 224.803 173.024C220.733 160.706 193.222 135.365 191.987 133.671C188.825 129.718 189.734 127.953 191.987 124.424C192.023 124.389 218.153 88.671 220.842 76.5651Z" fill="url(#paint0_linear)"/>
<rect x="0.5" y="0.5" width="255" height="255" rx="15.5" stroke="white" stroke-opacity="0.2"/>
<rect x="0.5" y="0.5" width="255" height="255" rx="15.5" stroke="url(#paint1_linear)"/>
<defs>
<linearGradient id="paint0_linear" x1="43.3578" y1="56.1972" x2="148.842" y2="217.993" gradientUnits="userSpaceOnUse">
<stop stop-color="#3AF436"/>
<stop offset="0.560417" stop-color="#36F4F4"/>
<stop offset="1" stop-color="#363EF4"/>
</linearGradient>
<linearGradient id="paint1_linear" x1="18.0706" y1="-28.8072" x2="277.439" y2="200.708" gradientUnits="userSpaceOnUse">
<stop stop-color="#3AF436"/>
<stop offset="0.560417" stop-color="#36F4F4"/>
<stop offset="1" stop-color="#363EF4"/>
</linearGradient>
</defs>
</svg>
