<svg width="256" height="256" viewBox="0 0 256 256" fill="none" xmlns="http://www.w3.org/2000/svg">
<path d="M60.8 102.247V160.151C60.8 167.847 54.752 173.999 47.048 173.999C39.4 173.999 32 167.799 32 160.151V102.247C32 94.6949 39.4 88.4949 47.048 88.4949C54.6 88.4949 60.8 94.6949 60.8 102.247V102.247ZM66.2 180.751C66.2 188.951 72.8 195.551 81 195.551H90.952L91.104 226.103C91.104 244.551 118.704 244.407 118.704 226.103V195.551H137.304V226.103C137.304 244.455 165.056 244.503 165.056 226.103V195.551H175.152C177.089 195.545 179.006 195.157 180.792 194.41C182.579 193.662 184.202 192.57 185.566 191.196C186.931 189.821 188.012 188.192 188.746 186.399C189.481 184.607 189.855 182.688 189.848 180.751V91.0549H66.2V180.751ZM190.2 86.1989H65.648C65.648 64.7989 78.448 46.1989 97.448 36.5029L87.896 18.8549C86.496 16.4069 90.048 14.8549 91.248 16.9509L100.944 34.7509C118.392 26.9989 138.448 27.3989 155.096 34.7509L164.744 16.9989C165.992 14.8469 169.496 16.4469 168.096 18.9029L158.544 36.5029C177.392 46.1989 190.192 64.8069 190.192 86.1989H190.2ZM104.848 58.4469C104.848 57.0551 104.295 55.7202 103.311 54.736C102.327 53.7518 100.992 53.1989 99.6 53.1989C96.752 53.1989 94.504 55.5989 94.504 58.4469C94.504 61.2949 96.808 63.6949 99.6 63.6949C102.552 63.6949 104.848 61.2949 104.848 58.4469ZM161.552 58.4469C161.559 57.0778 161.028 55.7608 160.073 54.7794C159.118 53.7979 157.817 53.2304 156.448 53.1989C155.056 53.1989 153.721 53.7518 152.737 54.736C151.753 55.7202 151.2 57.0551 151.2 58.4469C151.2 59.8388 151.753 61.1736 152.737 62.1578C153.721 63.142 155.056 63.6949 156.448 63.6949C159.248 63.6949 161.552 61.2949 161.552 58.4469V58.4469ZM208.952 88.5029C201.4 88.5029 195.2 94.5509 195.2 102.255V160.159C195.2 167.855 201.4 174.007 208.952 174.007C216.656 174.007 224 167.807 224 160.159V102.255C224 94.5589 216.6 88.5029 208.952 88.5029Z" fill="white" fill-opacity="0.2"/>
<path d="M60.8 102.247V160.151C60.8 167.847 54.752 173.999 47.048 173.999C39.4 173.999 32 167.799 32 160.151V102.247C32 94.6949 39.4 88.4949 47.048 88.4949C54.6 88.4949 60.8 94.6949 60.8 102.247V102.247ZM66.2 180.751C66.2 188.951 72.8 195.551 81 195.551H90.952L91.104 226.103C91.104 244.551 118.704 244.407 118.704 226.103V195.551H137.304V226.103C137.304 244.455 165.056 244.503 165.056 226.103V195.551H175.152C177.089 195.545 179.006 195.157 180.792 194.41C182.579 193.662 184.202 192.57 185.566 191.196C186.931 189.821 188.012 188.192 188.746 186.399C189.481 184.607 189.855 182.688 189.848 180.751V91.0549H66.2V180.751ZM190.2 86.1989H65.648C65.648 64.7989 78.448 46.1989 97.448 36.5029L87.896 18.8549C86.496 16.4069 90.048 14.8549 91.248 16.9509L100.944 34.7509C118.392 26.9989 138.448 27.3989 155.096 34.7509L164.744 16.9989C165.992 14.8469 169.496 16.4469 168.096 18.9029L158.544 36.5029C177.392 46.1989 190.192 64.8069 190.192 86.1989H190.2ZM104.848 58.4469C104.848 57.0551 104.295 55.7202 103.311 54.736C102.327 53.7518 100.992 53.1989 99.6 53.1989C96.752 53.1989 94.504 55.5989 94.504 58.4469C94.504 61.2949 96.808 63.6949 99.6 63.6949C102.552 63.6949 104.848 61.2949 104.848 58.4469ZM161.552 58.4469C161.559 57.0778 161.028 55.7608 160.073 54.7794C159.118 53.7979 157.817 53.2304 156.448 53.1989C155.056 53.1989 153.721 53.7518 152.737 54.736C151.753 55.7202 151.2 57.0551 151.2 58.4469C151.2 59.8388 151.753 61.1736 152.737 62.1578C153.721 63.142 155.056 63.6949 156.448 63.6949C159.248 63.6949 161.552 61.2949 161.552 58.4469V58.4469ZM208.952 88.5029C201.4 88.5029 195.2 94.5509 195.2 102.255V160.159C195.2 167.855 201.4 174.007 208.952 174.007C216.656 174.007 224 167.807 224 160.159V102.255C224 94.5589 216.6 88.5029 208.952 88.5029Z" fill="url(#paint0_linear)"/>
<defs>
<linearGradient id="paint0_linear" x1="45.5529" y1="-9.22812" x2="265.673" y2="157.792" gradientUnits="userSpaceOnUse">
<stop stop-color="#3AF436"/>
<stop offset="0.560417" stop-color="#36F4F4"/>
<stop offset="1" stop-color="#363EF4"/>
</linearGradient>
</defs>
</svg>
