<svg width="256" height="256" viewBox="0 0 256 256" fill="none" xmlns="http://www.w3.org/2000/svg">
<path d="M197.188 92.2463C195.938 91.9961 195 91.871 194.375 91.871C189.75 91.871 185.75 93.435 182.375 96.563C174.75 93.1848 167.625 90.4321 161 88.305C150.125 84.8016 138.75 81.9238 126.875 79.6716C125.75 76.6686 124.062 74.1662 121.812 72.1642C124.937 57.3998 129.125 44.0117 134.375 32C150.125 33.1261 164.594 37.6931 177.781 45.7009C190.969 53.7087 201.625 64.219 209.75 77.2317C205.125 82.2366 200.938 87.2414 197.188 92.2463ZM110.188 67.8475C106.937 67.8475 103.875 68.7234 101 70.4751C90.875 62.9677 80.6875 56.5865 70.4375 51.3314C85.9375 39.5699 103.313 33.1261 122.562 32C117.688 42.8856 113.75 54.8348 110.75 67.8475H110.188ZM45.125 79.4839C49.375 72.3519 54.75 65.5953 61.25 59.2141C69.75 63.5934 78.5625 68.9736 87.6875 75.3548C71.5625 74.9795 57.375 76.3558 45.125 79.4839ZM92.1875 86.9912C92.4375 90.87 93.7812 94.2796 96.2188 97.2199C98.6562 100.16 101.687 102.131 105.312 103.132C104.562 111.891 104.188 120.211 104.188 128.094C104.188 133.599 104.375 139.918 104.75 147.05C102 147.926 99.5625 149.427 97.4375 151.554C90.6875 148.927 84.1875 145.924 77.9375 142.545C79.3125 139.793 80 136.978 80 134.1C80 129.095 78.25 124.841 74.75 121.337C71.25 117.834 67 116.082 62 116.082C56.5 116.082 51.9375 118.209 48.3125 122.463C43.0625 117.709 38.375 112.766 34.25 107.636C35.375 102.256 37.0625 96.9384 39.3125 91.6833C54.5625 87.4291 72.1875 85.8651 92.1875 86.9912ZM44.1875 135.601C44.5625 140.231 46.4687 144.141 49.9062 147.331C53.3438 150.522 57.375 152.117 62 152.117C63.375 152.117 64.875 151.867 66.5 151.367C74.5 155.996 83.0625 160 92.1875 163.378V164.129C92.1875 169.009 93.8438 173.169 97.1562 176.61C100.469 180.051 104.562 181.896 109.438 182.147C112.562 197.412 116.938 211.363 122.562 224C110.063 223.249 98.25 220.215 87.125 214.897C76 209.58 66.4062 202.667 58.3438 194.158C50.2812 185.65 43.875 175.64 39.125 164.129C34.375 152.618 32 140.606 32 128.094C32 127.969 32.0625 126.28 32.1875 123.026C35.6875 127.406 39.6875 131.597 44.1875 135.601ZM125.938 172.575C134.938 174.201 144 175.265 153.125 175.765C154 178.268 155.375 180.583 157.25 182.71C154.375 195.848 152.625 208.61 152 220.997C145.625 222.624 139.75 223.625 134.375 224C128.5 210.612 123.938 195.472 120.688 178.581C122.938 177.079 124.688 175.077 125.938 172.575ZM184.062 181.584C185.688 179.582 186.813 177.455 187.438 175.202C196.563 174.452 205.375 173.263 213.875 171.636C207.875 183.398 199.625 193.595 189.125 202.229C188 195.722 186.312 188.841 184.062 181.584ZM153.5 163.754C144.75 163.253 136.125 162.127 127.625 160.375C126.25 154.119 122.687 149.803 116.938 147.425C116.437 140.043 116.188 133.599 116.188 128.094C116.188 119.836 116.562 111.265 117.312 102.381C117.563 102.381 117.875 102.256 118.25 102.006C118.625 101.756 118.875 101.63 119 101.63C123.875 106.385 128.125 110.764 131.75 114.768C142.625 126.78 151.875 140.418 159.5 155.683C156.75 157.81 154.75 160.5 153.5 163.754ZM170.188 188.152C170.438 188.152 171.125 188.09 172.25 187.965C174.375 195.597 175.937 203.167 176.938 210.674C173.312 212.802 168.938 214.929 163.812 217.056C164.687 207.296 166.188 197.599 168.312 187.965C169.313 188.09 169.937 188.152 170.188 188.152ZM169.25 143.296C169.125 143.546 168.969 143.922 168.781 144.422C168.594 144.923 168.438 145.298 168.312 145.548C160.438 131.284 151.188 118.334 140.562 106.698C136.688 102.319 132.062 97.564 126.688 92.434C126.813 92.434 126.906 92.3402 126.969 92.1525L127.062 91.871C137.562 93.998 147.625 96.6256 157.25 99.7537C163.125 101.63 169.563 104.133 176.562 107.261C176.312 108.512 176.188 109.451 176.188 110.076C176.188 113.83 177.312 117.271 179.562 120.399C175.438 128.282 172 135.914 169.25 143.296ZM178.062 154.182C179.562 149.803 180.312 147.55 180.312 147.425C182.812 141.169 185.938 134.475 189.688 127.343C191.313 127.844 192.875 128.094 194.375 128.094C198.625 128.094 202.438 126.655 205.812 123.777C211.938 128.031 217.937 132.786 223.812 138.041C223.062 145.173 221.562 152.055 219.312 158.686C209.062 160.813 198.25 162.315 186.875 163.191C185.25 159.187 182.312 156.184 178.062 154.182ZM212.375 109.889C212.375 105.76 211 102.006 208.25 98.6276C210.875 95.2493 213.5 92.1838 216.125 89.4311C220.625 99.6911 223.25 110.264 224 121.15C219.875 118.022 215.875 115.206 212 112.704C212.25 111.578 212.375 110.639 212.375 109.889Z" fill="white" fill-opacity="0.2"/>
<path d="M197.188 92.2463C195.938 91.9961 195 91.871 194.375 91.871C189.75 91.871 185.75 93.435 182.375 96.563C174.75 93.1848 167.625 90.4321 161 88.305C150.125 84.8016 138.75 81.9238 126.875 79.6716C125.75 76.6686 124.062 74.1662 121.812 72.1642C124.937 57.3998 129.125 44.0117 134.375 32C150.125 33.1261 164.594 37.6931 177.781 45.7009C190.969 53.7087 201.625 64.219 209.75 77.2317C205.125 82.2366 200.938 87.2414 197.188 92.2463ZM110.188 67.8475C106.937 67.8475 103.875 68.7234 101 70.4751C90.875 62.9677 80.6875 56.5865 70.4375 51.3314C85.9375 39.5699 103.313 33.1261 122.562 32C117.688 42.8856 113.75 54.8348 110.75 67.8475H110.188ZM45.125 79.4839C49.375 72.3519 54.75 65.5953 61.25 59.2141C69.75 63.5934 78.5625 68.9736 87.6875 75.3548C71.5625 74.9795 57.375 76.3558 45.125 79.4839ZM92.1875 86.9912C92.4375 90.87 93.7812 94.2796 96.2188 97.2199C98.6562 100.16 101.687 102.131 105.312 103.132C104.562 111.891 104.188 120.211 104.188 128.094C104.188 133.599 104.375 139.918 104.75 147.05C102 147.926 99.5625 149.427 97.4375 151.554C90.6875 148.927 84.1875 145.924 77.9375 142.545C79.3125 139.793 80 136.978 80 134.1C80 129.095 78.25 124.841 74.75 121.337C71.25 117.834 67 116.082 62 116.082C56.5 116.082 51.9375 118.209 48.3125 122.463C43.0625 117.709 38.375 112.766 34.25 107.636C35.375 102.256 37.0625 96.9384 39.3125 91.6833C54.5625 87.4291 72.1875 85.8651 92.1875 86.9912ZM44.1875 135.601C44.5625 140.231 46.4687 144.141 49.9062 147.331C53.3438 150.522 57.375 152.117 62 152.117C63.375 152.117 64.875 151.867 66.5 151.367C74.5 155.996 83.0625 160 92.1875 163.378V164.129C92.1875 169.009 93.8438 173.169 97.1562 176.61C100.469 180.051 104.562 181.896 109.438 182.147C112.562 197.412 116.938 211.363 122.562 224C110.063 223.249 98.25 220.215 87.125 214.897C76 209.58 66.4062 202.667 58.3438 194.158C50.2812 185.65 43.875 175.64 39.125 164.129C34.375 152.618 32 140.606 32 128.094C32 127.969 32.0625 126.28 32.1875 123.026C35.6875 127.406 39.6875 131.597 44.1875 135.601ZM125.938 172.575C134.938 174.201 144 175.265 153.125 175.765C154 178.268 155.375 180.583 157.25 182.71C154.375 195.848 152.625 208.61 152 220.997C145.625 222.624 139.75 223.625 134.375 224C128.5 210.612 123.938 195.472 120.688 178.581C122.938 177.079 124.688 175.077 125.938 172.575ZM184.062 181.584C185.688 179.582 186.813 177.455 187.438 175.202C196.563 174.452 205.375 173.263 213.875 171.636C207.875 183.398 199.625 193.595 189.125 202.229C188 195.722 186.312 188.841 184.062 181.584ZM153.5 163.754C144.75 163.253 136.125 162.127 127.625 160.375C126.25 154.119 122.687 149.803 116.938 147.425C116.437 140.043 116.188 133.599 116.188 128.094C116.188 119.836 116.562 111.265 117.312 102.381C117.563 102.381 117.875 102.256 118.25 102.006C118.625 101.756 118.875 101.63 119 101.63C123.875 106.385 128.125 110.764 131.75 114.768C142.625 126.78 151.875 140.418 159.5 155.683C156.75 157.81 154.75 160.5 153.5 163.754ZM170.188 188.152C170.438 188.152 171.125 188.09 172.25 187.965C174.375 195.597 175.937 203.167 176.938 210.674C173.312 212.802 168.938 214.929 163.812 217.056C164.687 207.296 166.188 197.599 168.312 187.965C169.313 188.09 169.937 188.152 170.188 188.152ZM169.25 143.296C169.125 143.546 168.969 143.922 168.781 144.422C168.594 144.923 168.438 145.298 168.312 145.548C160.438 131.284 151.188 118.334 140.562 106.698C136.688 102.319 132.062 97.564 126.688 92.434C126.813 92.434 126.906 92.3402 126.969 92.1525L127.062 91.871C137.562 93.998 147.625 96.6256 157.25 99.7537C163.125 101.63 169.563 104.133 176.562 107.261C176.312 108.512 176.188 109.451 176.188 110.076C176.188 113.83 177.312 117.271 179.562 120.399C175.438 128.282 172 135.914 169.25 143.296ZM178.062 154.182C179.562 149.803 180.312 147.55 180.312 147.425C182.812 141.169 185.938 134.475 189.688 127.343C191.313 127.844 192.875 128.094 194.375 128.094C198.625 128.094 202.438 126.655 205.812 123.777C211.938 128.031 217.937 132.786 223.812 138.041C223.062 145.173 221.562 152.055 219.312 158.686C209.062 160.813 198.25 162.315 186.875 163.191C185.25 159.187 182.312 156.184 178.062 154.182ZM212.375 109.889C212.375 105.76 211 102.006 208.25 98.6276C210.875 95.2493 213.5 92.1838 216.125 89.4311C220.625 99.6911 223.25 110.264 224 121.15C219.875 118.022 215.875 115.206 212 112.704C212.25 111.578 212.375 110.639 212.375 109.889Z" fill="url(#paint0_linear)"/>
<defs>
<linearGradient id="paint0_linear" x1="45.5529" y1="10.3946" x2="240.079" y2="182.531" gradientUnits="userSpaceOnUse">
<stop stop-color="#3AF436"/>
<stop offset="0.560417" stop-color="#36F4F4"/>
<stop offset="1" stop-color="#363EF4"/>
</linearGradient>
</defs>
</svg>
